<?xml version="1.0" encoding="iso-8859-1"?>
<!-- Generator: Adobe Illustrator 19.0.0, SVG Export Plug-In . SVG Version: 6.00 Build 0)  -->
<svg version="1.1" id="Layer_1" xmlns="http://www.w3.org/2000/svg" xmlns:xlink="http://www.w3.org/1999/xlink" x="0px" y="0px"
	 viewBox="0 0 512 512" style="enable-background:new 0 0 512 512;" xml:space="preserve">
<g>
	<g>
		<g>
			<path d="M221.868,386.396v23.202c0,18.825,15.309,34.133,34.133,34.133s34.133-15.309,34.133-34.133v-23.211v-36.523h-68.267
				V386.396z"/>
			<path d="M372.526,315.732h-39.723h-153.6h-39.654c-1.476,0-2.236,0.853-2.611,1.57c-0.333,0.623-0.751,1.877,0.188,3.268
				c16.683,24.627,40.422,43.469,67.678,53.939v-24.644c0-9.412,7.654-17.067,17.067-17.067h68.267
				c9.404,0,17.067,7.654,17.067,17.067v24.636c27.273-10.487,51.021-29.355,67.695-53.999c0.939-1.382,0.521-2.62,0.196-3.234
				C374.719,316.568,373.977,315.732,372.526,315.732z"/>
			<path d="M161.959,204.798c14.114,0,25.6-11.486,25.6-25.6s-11.486-25.6-25.6-25.6s-25.6,11.486-25.6,25.6
				S147.845,204.798,161.959,204.798z"/>
			<path d="M256,0C114.842,0,0,114.842,0,256s114.842,256,256,256s256-114.842,256-256S397.158,0,256,0z M161.963,136.533
				c23.518,0,42.667,19.14,42.667,42.667s-19.149,42.667-42.667,42.667c-23.526,0-42.667-19.14-42.667-42.667
				S138.436,136.533,161.963,136.533z M389.035,330.061c-19.857,29.355-48.768,51.243-81.835,62.421V409.6
				c0,28.228-22.963,51.2-51.2,51.2c-28.228,0-51.2-22.972-51.2-51.2v-17.109c-33.033-11.17-61.943-33.033-81.801-62.345
				c-4.215-6.221-4.659-14.208-1.152-20.838c3.49-6.562,10.274-10.641,17.707-10.641H179.2h153.6h39.723
				c7.415,0,14.174,4.062,17.647,10.598C393.677,315.87,393.242,323.84,389.035,330.061z M388.224,152.474l-46.916,26.735
				l46.754,26.718c4.087,2.338,5.513,7.543,3.174,11.639c-1.579,2.756-4.454,4.301-7.415,4.301c-1.434,0-2.893-0.367-4.224-1.126
				l-59.733-34.133c-2.662-1.519-4.301-4.352-4.301-7.415s1.647-5.888,4.309-7.407l59.904-34.133
				c4.096-2.347,9.301-0.913,11.639,3.191C393.754,144.939,392.32,150.153,388.224,152.474z"/>
		</g>
	</g>
</g>
<g>
</g>
<g>
</g>
<g>
</g>
<g>
</g>
<g>
</g>
<g>
</g>
<g>
</g>
<g>
</g>
<g>
</g>
<g>
</g>
<g>
</g>
<g>
</g>
<g>
</g>
<g>
</g>
<g>
</g>
</svg>
